<svg id="svg" version="1.1" xmlns="http://www.w3.org/2000/svg" xmlns:xlink="http://www.w3.org/1999/xlink" width="400" height="400" viewBox="0, 0, 400,400"><g id="svgg"><path id="path0" d="M208.200 95.411 C 207.980 95.492,205.280 95.842,202.200 96.189 C 199.120 96.535,194.350 97.086,191.600 97.413 C 188.850 97.740,184.987 98.192,183.016 98.417 C 178.743 98.906,177.600 99.165,177.600 99.648 C 177.600 99.846,177.261 100.772,176.847 101.704 C 175.847 103.953,171.373 114.898,168.795 121.400 C 167.662 124.260,166.498 127.140,166.211 127.800 C 165.923 128.460,165.383 129.810,165.011 130.800 C 164.639 131.790,164.100 133.140,163.813 133.800 C 162.899 135.906,158.194 147.502,154.400 157.000 C 152.379 162.060,149.769 168.540,148.600 171.400 C 147.430 174.260,145.989 177.860,145.396 179.400 C 144.241 182.399,143.775 183.520,142.447 186.496 C 141.981 187.538,141.600 188.485,141.600 188.600 C 141.600 188.715,141.262 189.572,140.850 190.504 C 140.437 191.437,139.699 193.190,139.210 194.400 C 137.320 199.073,135.514 203.459,134.929 204.800 C 134.593 205.570,134.173 206.560,133.994 207.000 C 129.869 217.183,119.531 239.001,115.641 245.732 C 114.518 247.674,113.600 249.342,113.600 249.440 C 113.600 249.537,112.520 251.258,111.200 253.265 C 109.880 255.272,108.800 256.993,108.800 257.090 C 108.800 257.186,107.720 258.752,106.400 260.568 C 105.080 262.385,104.000 264.080,104.000 264.336 C 104.000 264.683,110.584 264.800,130.200 264.800 C 144.610 264.800,156.400 264.712,156.400 264.604 C 156.400 264.496,154.958 263.030,153.195 261.346 C 143.462 252.047,139.767 242.601,139.838 227.200 C 139.874 219.477,140.065 217.521,141.431 210.905 L 141.698 209.609 156.949 209.505 L 172.200 209.400 172.318 206.700 L 172.437 204.000 158.006 204.000 C 145.469 204.000,143.544 203.920,143.342 203.393 C 143.024 202.564,143.627 200.262,146.430 191.600 C 148.807 184.257,150.098 180.596,151.508 177.200 C 152.567 174.653,154.404 169.771,154.402 169.512 C 154.401 169.353,154.829 168.273,155.353 167.112 C 155.877 165.950,159.511 156.990,163.428 147.200 C 167.345 137.410,170.736 129.275,170.962 129.123 C 171.591 128.699,172.100 129.286,175.293 134.123 C 182.715 145.363,191.289 163.495,197.413 180.900 L 198.504 184.000 217.852 184.000 C 234.327 184.000,237.200 183.915,237.200 183.430 C 237.200 183.117,236.635 181.452,235.944 179.730 C 232.138 170.243,222.304 141.761,219.188 131.200 C 218.702 129.550,217.788 126.490,217.157 124.400 C 214.048 114.087,211.528 104.141,210.748 99.095 C 210.502 97.503,210.238 95.975,210.163 95.700 C 210.033 95.227,209.079 95.087,208.200 95.411 M179.277 191.544 C 178.755 191.875,178.770 192.078,179.603 195.800 C 180.315 198.981,181.557 206.277,181.986 209.800 C 182.227 211.780,182.591 214.750,182.795 216.400 C 182.999 218.050,183.388 222.775,183.660 226.900 C 184.195 235.031,184.352 235.585,185.135 232.100 C 190.294 209.134,201.236 194.608,212.871 195.278 L 214.982 195.400 215.666 199.400 C 218.415 215.477,220.005 234.391,219.994 250.908 C 219.983 268.885,218.156 287.048,214.417 306.355 C 214.188 307.540,214.000 308.755,214.000 309.055 C 214.000 309.595,249.934 309.933,250.469 309.397 C 250.581 309.286,250.535 308.431,250.368 307.497 C 246.978 288.617,246.204 282.434,245.197 266.207 C 244.441 254.022,244.958 229.600,246.163 220.600 C 246.281 219.720,246.578 217.110,246.824 214.800 C 247.207 211.193,248.550 202.322,249.519 197.000 L 249.810 195.400 251.944 195.278 C 263.586 194.611,273.187 207.162,279.038 230.697 C 280.266 235.635,280.784 235.849,280.794 231.423 C 280.801 228.106,281.364 221.786,282.453 212.800 C 283.184 206.769,283.793 203.108,285.434 194.876 C 285.755 193.267,285.913 191.782,285.785 191.576 C 285.494 191.104,180.019 191.073,179.277 191.544 " stroke="none" fill="#f8f8f8" fill-rule="evenodd"></path><path id="path1" d="M0.000 200.000 L 0.000 400.000 200.000 400.000 L 400.000 400.000 400.000 200.000 L 400.000 0.000 200.000 0.000 L 0.000 0.000 0.000 200.000 M211.199 97.994 C 213.480 111.516,223.534 144.184,234.416 173.431 C 236.387 178.729,238.000 183.454,238.000 183.931 L 238.000 184.800 218.249 184.800 C 202.926 184.800,198.409 184.688,198.101 184.300 C 197.883 184.025,197.054 182.049,196.259 179.909 C 194.181 174.315,192.040 168.861,191.161 166.922 C 190.742 165.999,190.400 165.142,190.400 165.018 C 190.400 163.502,179.981 142.742,176.869 138.056 C 175.951 136.674,175.200 135.475,175.200 135.391 C 175.200 134.816,171.435 130.009,171.190 130.271 C 171.020 130.452,170.403 131.860,169.818 133.400 C 169.233 134.940,168.152 137.640,167.416 139.400 C 166.679 141.160,165.234 144.760,164.204 147.400 C 163.174 150.040,161.897 153.150,161.366 154.312 C 160.835 155.473,160.400 156.518,160.400 156.634 C 160.400 156.749,158.614 161.298,156.431 166.741 C 154.249 172.185,152.099 177.710,151.654 179.019 C 151.209 180.329,150.366 182.660,149.782 184.200 C 147.013 191.493,143.827 202.197,144.230 202.849 C 144.350 203.042,150.807 203.200,158.581 203.200 C 174.577 203.200,173.200 202.865,173.200 206.753 C 173.200 210.194,174.149 210.000,157.328 210.000 L 142.415 210.000 142.174 211.100 C 142.042 211.705,141.849 212.465,141.745 212.789 C 141.132 214.706,140.400 222.981,140.401 227.975 C 140.404 242.422,144.296 251.659,154.492 261.423 C 156.724 263.560,157.949 265.011,157.717 265.243 C 157.446 265.514,113.480 265.811,103.300 265.610 C 102.470 265.593,102.736 264.137,103.800 262.873 C 104.350 262.219,104.800 261.570,104.800 261.430 C 104.800 261.289,105.770 259.875,106.955 258.287 C 112.898 250.323,123.181 230.523,130.786 212.400 C 131.940 209.650,133.123 206.943,133.415 206.384 C 133.707 205.825,134.209 204.655,134.530 203.784 C 134.851 202.913,136.132 199.770,137.377 196.800 C 138.623 193.830,141.528 186.720,143.833 181.000 C 146.138 175.280,148.189 170.240,148.391 169.800 C 148.593 169.360,149.323 167.560,150.013 165.800 C 150.704 164.040,151.429 162.240,151.625 161.800 C 152.394 160.068,159.371 142.794,160.656 139.439 C 161.407 137.480,162.265 135.320,162.564 134.639 C 162.863 133.958,164.313 130.430,165.787 126.800 C 167.260 123.170,169.603 117.410,170.993 114.000 C 172.383 110.590,174.289 105.820,175.228 103.400 C 177.390 97.831,176.577 98.391,183.681 97.579 C 187.046 97.195,193.130 96.488,197.200 96.009 C 212.067 94.258,210.532 94.041,211.199 97.994 M286.618 191.304 C 286.725 191.581,286.645 192.616,286.440 193.604 C 283.851 206.130,282.440 216.352,281.610 228.600 C 281.104 236.061,280.897 237.600,280.398 237.600 C 280.004 237.600,279.944 237.406,277.766 229.000 C 272.734 209.585,266.048 199.605,256.040 196.567 C 253.843 195.900,250.953 195.829,250.580 196.433 C 247.224 201.862,244.428 252.522,246.321 273.600 C 247.588 287.718,249.491 300.890,251.278 307.922 C 251.933 310.496,252.653 310.400,232.436 310.440 C 211.498 310.481,212.883 310.724,213.522 307.118 C 215.693 294.867,216.444 290.366,216.979 286.400 C 219.649 266.602,219.880 240.982,217.591 218.600 C 216.849 211.350,214.676 197.171,214.185 196.376 C 213.688 195.571,208.174 196.257,207.020 197.267 C 206.811 197.450,206.383 197.600,206.069 197.600 C 205.105 197.600,200.197 201.483,198.188 203.834 C 193.074 209.820,188.618 220.297,185.400 233.900 C 184.175 239.078,183.713 237.876,182.981 227.600 C 182.085 215.043,180.794 204.972,178.971 196.341 C 178.418 193.722,178.074 191.404,178.207 191.189 C 178.600 190.552,286.374 190.666,286.618 191.304 " stroke="none" fill="#040404" fill-rule="evenodd"></path><path id="path2" d="M206.505 95.087 C 207.114 95.179,208.014 95.177,208.505 95.082 C 208.997 94.987,208.500 94.911,207.400 94.914 C 206.300 94.917,205.897 94.995,206.505 95.087 M199.705 95.887 C 200.314 95.979,201.214 95.977,201.705 95.882 C 202.197 95.787,201.700 95.711,200.600 95.714 C 199.500 95.717,199.097 95.795,199.705 95.887 M193.800 96.400 C 191.868 96.665,191.854 96.676,193.400 96.714 C 194.280 96.736,195.720 96.605,196.600 96.423 C 198.642 96.001,196.820 95.986,193.800 96.400 M189.300 97.076 C 189.685 97.176,190.315 97.176,190.700 97.076 C 191.085 96.975,190.770 96.893,190.000 96.893 C 189.230 96.893,188.915 96.975,189.300 97.076 M186.305 97.483 C 186.802 97.579,187.522 97.575,187.905 97.475 C 188.287 97.375,187.880 97.296,187.000 97.301 C 186.120 97.305,185.807 97.387,186.305 97.483 M177.648 98.362 C 177.116 98.699,173.484 107.217,173.756 107.490 C 173.830 107.564,174.656 105.774,175.590 103.512 C 177.690 98.431,177.654 98.474,179.932 98.293 L 181.800 98.144 180.000 98.078 C 179.010 98.042,177.952 98.169,177.648 98.362 M211.228 100.033 C 211.244 100.565,211.419 101.360,211.619 101.800 C 211.871 102.358,211.907 102.115,211.738 101.000 C 211.455 99.143,211.187 98.636,211.228 100.033 M212.068 103.800 C 212.062 104.240,212.211 104.960,212.400 105.400 C 212.838 106.419,212.838 105.368,212.400 104.000 C 212.143 103.196,212.077 103.157,212.068 103.800 M173.200 108.484 C 173.200 108.604,172.928 109.354,172.595 110.151 C 172.262 110.948,172.079 111.600,172.189 111.600 C 172.506 111.600,173.633 108.700,173.405 108.472 C 173.292 108.359,173.200 108.365,173.200 108.484 M213.645 110.000 C 213.626 110.330,213.964 111.680,214.395 113.000 C 214.827 114.320,215.071 114.774,214.938 114.009 C 214.609 112.116,213.687 109.258,213.645 110.000 M215.256 116.000 C 215.256 116.330,215.411 116.960,215.600 117.400 C 215.817 117.904,215.944 117.978,215.944 117.600 C 215.944 117.270,215.789 116.640,215.600 116.200 C 215.383 115.696,215.256 115.622,215.256 116.000 M168.650 119.591 C 167.747 121.847,167.887 122.183,168.837 120.042 C 169.266 119.075,169.545 118.212,169.458 118.125 C 169.371 118.038,169.008 118.698,168.650 119.591 M216.166 119.400 C 216.806 122.160,217.262 123.671,217.410 123.523 C 217.600 123.333,216.418 118.683,216.107 118.400 C 215.986 118.290,216.013 118.740,216.166 119.400 M165.665 127.017 C 164.995 128.488,165.123 128.802,165.847 127.465 C 166.186 126.840,166.388 126.254,166.296 126.163 C 166.205 126.071,165.921 126.456,165.665 127.017 M164.057 130.844 C 163.586 131.978,163.207 133.108,163.216 133.353 C 163.225 133.599,163.686 132.746,164.240 131.457 C 164.794 130.169,165.173 129.039,165.081 128.948 C 164.989 128.856,164.529 129.709,164.057 130.844 M219.256 129.600 C 219.256 129.930,219.411 130.560,219.600 131.000 C 219.817 131.504,219.944 131.578,219.944 131.200 C 219.944 130.870,219.789 130.240,219.600 129.800 C 219.383 129.296,219.256 129.222,219.256 129.600 M170.643 130.233 C 170.249 131.259,170.363 131.404,170.942 130.612 C 171.443 129.927,171.608 130.056,173.156 132.336 C 174.077 133.691,174.914 134.800,175.017 134.800 C 175.435 134.800,171.766 129.616,171.343 129.608 C 171.091 129.604,170.776 129.885,170.643 130.233 M169.467 133.267 C 169.105 134.188,168.874 135.007,168.954 135.088 C 169.034 135.168,169.400 134.483,169.767 133.567 C 170.133 132.650,170.364 131.831,170.279 131.746 C 170.194 131.661,169.829 132.345,169.467 133.267 M220.207 132.900 C 221.163 136.199,222.174 139.159,222.301 139.032 C 222.489 138.844,220.372 132.000,220.126 132.000 C 220.027 132.000,220.063 132.405,220.207 132.900 M162.438 134.900 C 162.249 135.395,161.804 136.497,161.448 137.349 C 160.744 139.031,160.609 139.767,161.185 138.785 C 161.791 137.749,163.201 134.000,162.984 134.000 C 162.872 134.000,162.626 134.405,162.438 134.900 M175.271 135.400 C 175.480 136.045,178.050 140.000,178.260 140.000 C 178.534 140.000,176.907 137.182,175.951 136.000 C 175.505 135.450,175.199 135.180,175.271 135.400 M167.495 138.295 C 166.128 141.772,166.366 142.010,167.811 138.611 C 168.423 137.170,168.839 135.906,168.736 135.803 C 168.633 135.699,168.074 136.821,167.495 138.295 M159.515 142.210 C 159.392 142.645,159.169 143.360,159.020 143.800 C 158.871 144.240,159.042 144.094,159.400 143.476 C 159.758 142.858,159.981 142.142,159.895 141.886 C 159.810 141.630,159.639 141.776,159.515 142.210 M179.245 141.801 C 179.667 142.895,182.139 147.195,182.270 147.064 C 182.353 146.981,181.770 145.763,180.976 144.356 C 179.624 141.964,178.890 140.879,179.245 141.801 M163.402 148.493 C 162.347 151.192,161.330 153.571,161.142 153.780 C 160.954 153.989,160.807 154.439,160.815 154.780 C 160.823 155.121,161.165 154.680,161.576 153.800 C 162.833 151.108,165.623 143.890,165.466 143.733 C 165.385 143.652,164.456 145.794,163.402 148.493 M182.400 147.753 C 182.400 148.182,183.590 150.400,183.821 150.400 C 183.931 150.400,183.723 149.815,183.359 149.100 C 182.617 147.640,182.400 147.336,182.400 147.753 M225.403 149.200 C 225.911 150.881,227.155 153.825,227.178 153.400 C 227.204 152.926,225.625 148.689,225.315 148.400 C 225.197 148.290,225.237 148.650,225.403 149.200 M184.004 151.000 C 184.005 151.220,184.363 151.940,184.800 152.600 C 185.836 154.164,185.837 153.608,184.801 151.910 C 184.362 151.189,184.004 150.780,184.004 151.000 M155.067 153.267 C 154.705 154.188,154.474 155.007,154.554 155.088 C 154.634 155.168,155.000 154.483,155.367 153.567 C 155.733 152.650,155.964 151.831,155.879 151.746 C 155.794 151.661,155.429 152.345,155.067 153.267 M185.620 154.064 C 185.582 154.564,188.472 160.461,188.662 160.272 C 188.766 160.168,188.129 158.669,187.246 156.941 C 186.362 155.214,185.631 153.919,185.620 154.064 M227.200 154.170 C 227.200 154.744,229.312 160.422,229.467 160.266 C 229.553 160.181,229.146 158.781,228.564 157.155 C 227.534 154.279,227.200 153.548,227.200 154.170 M152.650 159.191 C 151.747 161.447,151.887 161.783,152.837 159.642 C 153.266 158.675,153.545 157.812,153.458 157.725 C 153.371 157.638,153.008 158.298,152.650 159.191 M158.267 161.267 C 157.905 162.188,157.674 163.007,157.754 163.088 C 157.834 163.168,158.200 162.483,158.567 161.567 C 158.933 160.650,159.164 159.831,159.079 159.746 C 158.994 159.661,158.629 160.345,158.267 161.267 M230.445 163.600 C 230.453 163.930,230.806 164.920,231.229 165.800 C 231.652 166.680,231.886 166.962,231.749 166.426 C 231.373 164.961,230.429 162.914,230.445 163.600 M149.832 166.232 C 149.245 167.698,148.832 168.965,148.915 169.048 C 148.998 169.131,149.543 167.996,150.126 166.526 C 150.710 165.056,151.122 163.789,151.043 163.709 C 150.964 163.630,150.419 164.765,149.832 166.232 M190.430 165.000 C 190.429 165.220,190.775 166.120,191.200 167.000 C 191.625 167.880,191.971 168.330,191.970 168.000 C 191.968 167.670,191.622 166.770,191.200 166.000 C 190.778 165.230,190.432 164.780,190.430 165.000 M155.050 169.191 C 154.147 171.447,154.287 171.783,155.237 169.642 C 155.666 168.675,155.945 167.812,155.858 167.725 C 155.771 167.638,155.408 168.298,155.050 169.191 M232.254 168.400 C 232.389 168.950,232.745 169.940,233.045 170.600 C 233.484 171.564,233.543 171.603,233.346 170.800 C 233.211 170.250,232.855 169.260,232.555 168.600 C 232.116 167.636,232.057 167.597,232.254 168.400 M147.999 170.645 C 147.257 172.673,147.222 172.800,147.407 172.800 C 147.702 172.800,148.829 169.896,148.616 169.683 C 148.510 169.576,148.232 170.009,147.999 170.645 M144.385 179.683 C 141.548 186.757,141.289 187.483,142.129 186.000 C 142.954 184.543,147.299 173.566,147.121 173.388 C 147.038 173.305,145.807 176.138,144.385 179.683 M234.654 174.800 C 234.789 175.350,235.145 176.340,235.445 177.000 C 235.884 177.964,235.943 178.003,235.746 177.200 C 235.611 176.650,235.255 175.660,234.955 175.000 C 234.516 174.036,234.457 173.997,234.654 174.800 M152.011 176.880 C 151.369 178.642,148.930 185.593,148.601 186.600 C 148.358 187.345,148.372 187.349,148.806 186.671 C 149.063 186.269,149.421 185.459,149.602 184.871 C 149.784 184.282,150.574 182.011,151.358 179.825 C 152.142 177.639,152.718 175.785,152.638 175.705 C 152.558 175.625,152.276 176.153,152.011 176.880 M236.198 179.200 C 236.362 179.750,236.744 180.807,237.048 181.549 C 238.316 184.647,239.967 184.400,218.020 184.400 C 199.794 184.400,198.412 184.352,198.032 183.700 C 197.808 183.315,197.619 183.189,197.612 183.420 C 197.574 184.743,198.423 184.800,218.280 184.800 L 238.000 184.800 238.000 183.900 C 238.000 183.405,237.624 182.010,237.165 180.800 C 236.285 178.483,235.693 177.503,236.198 179.200 M178.150 191.385 C 178.026 191.709,178.017 192.205,178.131 192.487 C 178.244 192.769,178.351 192.595,178.368 192.100 L 178.400 191.200 232.372 191.200 C 286.155 191.200,286.345 191.203,286.525 192.006 C 286.676 192.677,286.697 192.660,286.653 191.906 L 286.600 191.000 232.488 190.899 C 185.174 190.810,178.348 190.871,178.150 191.385 M139.220 192.298 C 138.449 193.962,137.546 196.587,137.849 196.285 C 138.210 195.923,140.006 191.473,139.852 191.319 C 139.785 191.252,139.500 191.692,139.220 192.298 M178.662 194.600 C 178.796 195.480,178.972 196.275,179.053 196.367 C 179.356 196.710,179.129 194.568,178.781 193.800 C 178.529 193.242,178.493 193.485,178.662 194.600 M285.850 194.850 C 285.517 196.517,285.840 196.840,286.200 195.200 C 286.352 194.509,286.393 193.859,286.291 193.758 C 286.189 193.656,285.991 194.147,285.850 194.850 M212.199 195.963 L 214.198 196.200 214.691 198.200 L 215.183 200.200 214.953 198.200 C 214.649 195.565,214.675 195.590,212.276 195.663 L 210.200 195.726 212.199 195.963 M250.267 195.867 C 250.120 196.013,250.000 196.408,250.000 196.743 C 250.000 197.265,250.072 197.258,250.500 196.697 C 250.775 196.336,251.720 195.972,252.600 195.888 L 254.200 195.734 252.367 195.667 C 251.358 195.630,250.413 195.720,250.267 195.867 M208.200 196.400 C 207.696 196.617,207.622 196.744,208.000 196.744 C 208.330 196.744,208.960 196.589,209.400 196.400 C 209.904 196.183,209.978 196.056,209.600 196.056 C 209.270 196.056,208.640 196.211,208.200 196.400 M255.400 196.400 C 255.840 196.589,256.470 196.744,256.800 196.744 C 257.178 196.744,257.104 196.617,256.600 196.400 C 256.160 196.211,255.530 196.056,255.200 196.056 C 254.822 196.056,254.896 196.183,255.400 196.400 M144.637 198.532 C 144.287 199.737,144.011 201.055,144.024 201.462 C 144.037 201.868,144.386 200.944,144.800 199.409 C 145.691 196.100,145.556 195.371,144.637 198.532 M259.765 198.059 C 262.016 199.220,266.138 202.948,268.547 206.000 C 269.252 206.893,269.172 206.695,268.326 205.453 C 265.906 201.901,259.524 196.708,257.713 196.819 C 257.541 196.830,258.464 197.388,259.765 198.059 M179.462 198.600 C 179.596 199.480,179.772 200.275,179.853 200.367 C 180.156 200.710,179.929 198.568,179.581 197.800 C 179.329 197.242,179.293 197.485,179.462 198.600 M203.609 198.451 C 200.444 200.381,192.800 209.490,192.800 211.333 C 192.800 211.570,193.608 210.452,194.596 208.850 C 197.060 204.854,199.643 201.926,202.657 199.713 C 204.916 198.054,205.446 197.596,205.100 197.601 C 205.045 197.602,204.374 197.984,203.609 198.451 M285.049 198.215 C 284.912 198.573,284.821 199.346,284.846 199.933 C 284.880 200.732,284.970 200.598,285.204 199.400 C 285.535 197.700,285.462 197.140,285.049 198.215 M135.072 202.219 C 134.702 202.993,134.413 203.846,134.428 204.114 C 134.444 204.381,134.808 203.809,135.237 202.842 C 136.171 200.737,136.031 200.208,135.072 202.219 M215.458 202.600 C 215.585 203.700,215.839 205.230,216.024 206.000 C 216.267 207.008,216.295 206.734,216.124 205.019 C 215.994 203.710,215.739 202.180,215.558 201.619 C 215.343 200.952,215.308 201.290,215.458 202.600 M180.273 203.200 C 180.404 204.190,180.576 205.075,180.656 205.167 C 180.957 205.514,180.728 202.964,180.390 202.200 C 180.153 201.666,180.114 201.998,180.273 203.200 M248.893 202.800 C 248.893 203.570,248.975 203.885,249.076 203.500 C 249.176 203.115,249.176 202.485,249.076 202.100 C 248.975 201.715,248.893 202.030,248.893 202.800 M284.204 203.100 C 284.076 203.925,283.798 205.575,283.586 206.767 C 283.374 207.958,283.216 209.398,283.236 209.967 C 283.272 210.994,284.046 207.129,284.531 203.500 C 284.830 201.262,284.543 200.911,284.204 203.100 M143.683 202.800 C 143.840 203.314,145.929 203.429,158.233 203.600 L 172.600 203.800 172.829 206.600 L 173.059 209.400 173.129 206.933 C 173.246 202.843,174.631 203.200,158.637 203.200 C 147.925 203.200,144.433 203.080,144.030 202.700 C 143.602 202.296,143.535 202.316,143.683 202.800 M133.492 206.058 C 133.112 206.722,132.808 207.475,132.818 207.732 C 132.827 207.990,133.200 207.508,133.647 206.662 C 134.613 204.830,134.485 204.328,133.492 206.058 M248.093 208.000 C 248.093 208.770,248.175 209.085,248.276 208.700 C 248.376 208.315,248.376 207.685,248.276 207.300 C 248.175 206.915,248.093 207.230,248.093 208.000 M216.493 208.800 C 216.493 209.570,216.575 209.885,216.676 209.500 C 216.776 209.115,216.776 208.485,216.676 208.100 C 216.575 207.715,216.493 208.030,216.493 208.800 M271.523 211.400 C 272.610 213.600,274.088 217.069,274.808 219.109 C 275.527 221.149,276.185 222.748,276.270 222.663 C 276.765 222.169,271.168 209.010,269.948 207.800 C 269.727 207.580,270.435 209.200,271.523 211.400 M132.400 208.484 C 132.400 208.604,132.128 209.354,131.795 210.151 C 131.462 210.948,131.279 211.600,131.389 211.600 C 131.706 211.600,132.833 208.700,132.605 208.472 C 132.492 208.359,132.400 208.365,132.400 208.484 M181.293 209.600 C 181.293 210.370,181.375 210.685,181.476 210.300 C 181.576 209.915,181.576 209.285,181.476 208.900 C 181.375 208.515,181.293 208.830,181.293 209.600 M142.014 210.374 C 141.786 210.799,141.614 211.564,141.632 212.074 C 141.665 213.065,141.788 212.845,142.171 211.105 L 142.413 210.010 157.506 209.900 L 172.600 209.790 157.514 209.695 C 142.957 209.603,142.414 209.627,142.014 210.374 M181.701 212.600 C 181.705 213.480,181.787 213.793,181.883 213.295 C 181.979 212.798,181.975 212.078,181.875 211.695 C 181.775 211.313,181.696 211.720,181.701 212.600 M247.301 213.800 C 247.305 214.680,247.387 214.993,247.483 214.495 C 247.579 213.998,247.575 213.278,247.475 212.895 C 247.375 212.513,247.296 212.920,247.301 213.800 M217.309 214.800 C 217.309 215.790,217.387 216.195,217.482 215.700 C 217.578 215.205,217.578 214.395,217.482 213.900 C 217.387 213.405,217.309 213.810,217.309 214.800 M191.238 214.500 C 191.049 214.995,190.604 216.097,190.248 216.949 C 189.891 217.801,189.611 218.701,189.625 218.949 C 189.639 219.197,189.800 219.040,189.984 218.600 C 191.281 215.482,191.959 213.600,191.784 213.600 C 191.672 213.600,191.426 214.005,191.238 214.500 M129.044 216.444 C 128.457 217.800,128.041 218.975,128.122 219.055 C 128.202 219.136,128.748 218.091,129.333 216.733 C 129.919 215.376,130.334 214.201,130.256 214.122 C 130.177 214.044,129.632 215.089,129.044 216.444 M282.509 215.600 C 282.509 216.590,282.587 216.995,282.682 216.500 C 282.778 216.005,282.778 215.195,282.682 214.700 C 282.587 214.205,282.509 214.610,282.509 215.600 M182.109 216.000 C 182.109 216.990,182.187 217.395,182.282 216.900 C 182.378 216.405,182.378 215.595,182.282 215.100 C 182.187 214.605,182.109 215.010,182.109 216.000 M140.901 216.200 C 140.905 217.080,140.987 217.393,141.083 216.895 C 141.179 216.398,141.175 215.678,141.075 215.295 C 140.975 214.913,140.896 215.320,140.901 216.200 M217.693 219.200 C 217.693 219.970,217.775 220.285,217.876 219.900 C 217.976 219.515,217.976 218.885,217.876 218.500 C 217.775 218.115,217.693 218.430,217.693 219.200 M140.254 220.256 C 139.937 222.574,140.006 234.189,140.347 235.774 C 140.486 236.419,140.600 232.774,140.600 227.674 C 140.600 222.573,140.579 218.400,140.554 218.400 C 140.529 218.400,140.394 219.235,140.254 220.256 M182.509 220.800 C 182.509 221.790,182.587 222.195,182.682 221.700 C 182.778 221.205,182.778 220.395,182.682 219.900 C 182.587 219.405,182.509 219.810,182.509 220.800 M127.215 220.698 C 126.159 222.958,125.595 224.400,125.765 224.400 C 126.014 224.400,128.042 219.909,127.871 219.737 C 127.793 219.660,127.498 220.092,127.215 220.698 M246.524 221.800 C 246.526 223.120,246.601 223.612,246.690 222.893 C 246.779 222.174,246.777 221.094,246.686 220.493 C 246.595 219.892,246.522 220.480,246.524 221.800 M218.120 222.800 C 218.120 224.010,218.195 224.505,218.287 223.900 C 218.378 223.295,218.378 222.305,218.287 221.700 C 218.195 221.095,218.120 221.590,218.120 222.800 M281.724 223.400 C 281.726 224.720,281.801 225.212,281.890 224.493 C 281.979 223.774,281.977 222.694,281.886 222.093 C 281.795 221.492,281.722 222.080,281.724 223.400 M182.931 225.400 C 182.933 226.940,183.005 227.521,183.092 226.691 C 183.179 225.861,183.177 224.601,183.089 223.891 C 183.000 223.181,182.929 223.860,182.931 225.400 M276.433 223.600 C 276.421 223.930,276.667 225.010,276.979 226.000 C 277.291 226.990,277.556 227.530,277.567 227.200 C 277.579 226.870,277.333 225.790,277.021 224.800 C 276.709 223.810,276.444 223.270,276.433 223.600 M187.429 225.029 C 187.281 225.615,187.238 226.172,187.332 226.266 C 187.427 226.360,187.624 225.958,187.771 225.371 C 187.919 224.785,187.962 224.228,187.868 224.134 C 187.773 224.040,187.576 224.442,187.429 225.029 M124.278 227.020 C 122.809 230.014,122.945 230.369,124.446 227.460 C 125.110 226.173,125.586 225.053,125.504 224.971 C 125.423 224.889,124.871 225.811,124.278 227.020 M245.802 230.074 C 245.648 232.563,245.588 235.140,245.668 235.800 C 245.748 236.460,245.952 234.501,246.120 231.446 C 246.288 228.392,246.348 225.815,246.254 225.721 C 246.159 225.626,245.956 227.585,245.802 230.074 M186.629 227.829 C 186.481 228.415,186.438 228.972,186.532 229.066 C 186.627 229.160,186.824 228.758,186.971 228.171 C 187.119 227.585,187.162 227.028,187.068 226.934 C 186.973 226.840,186.776 227.242,186.629 227.829 M218.715 232.600 C 218.823 235.680,218.976 238.275,219.055 238.367 C 219.322 238.674,219.134 231.025,218.825 229.000 C 218.648 227.836,218.602 229.340,218.715 232.600 M277.656 228.400 C 277.656 228.730,277.811 229.360,278.000 229.800 C 278.217 230.304,278.344 230.378,278.344 230.000 C 278.344 229.670,278.189 229.040,278.000 228.600 C 277.783 228.096,277.656 228.022,277.656 228.400 M281.301 229.800 C 281.305 230.680,281.387 230.993,281.483 230.495 C 281.579 229.998,281.575 229.278,281.475 228.895 C 281.375 228.513,281.296 228.920,281.301 229.800 M183.314 232.200 C 183.317 233.300,183.395 233.703,183.487 233.095 C 183.579 232.486,183.577 231.586,183.482 231.095 C 183.387 230.603,183.311 231.100,183.314 232.200 M278.468 231.200 C 278.488 232.239,279.118 233.946,279.132 233.000 C 279.138 232.560,278.989 231.840,278.800 231.400 C 278.589 230.910,278.461 230.832,278.468 231.200 M280.928 234.000 C 280.928 235.430,281.001 236.015,281.089 235.300 C 281.178 234.585,281.178 233.415,281.089 232.700 C 281.001 231.985,280.928 232.570,280.928 234.000 M185.000 234.000 C 184.848 234.691,184.807 235.341,184.909 235.442 C 185.011 235.544,185.209 235.053,185.350 234.350 C 185.683 232.683,185.360 232.360,185.000 234.000 M279.206 234.640 C 279.194 235.476,280.079 237.600,280.439 237.600 C 280.638 237.600,280.800 237.420,280.800 237.200 C 280.800 236.980,280.620 236.800,280.400 236.800 C 280.180 236.800,279.997 236.485,279.994 236.100 C 279.987 235.342,279.216 233.914,279.206 234.640 M118.218 239.200 C 116.985 241.620,116.070 243.600,116.184 243.600 C 116.372 243.600,119.765 237.203,120.480 235.500 C 121.345 233.441,120.184 235.341,118.218 239.200 M245.369 250.400 C 245.369 254.910,245.427 256.755,245.498 254.500 C 245.570 252.245,245.570 248.555,245.498 246.300 C 245.427 244.045,245.369 245.890,245.369 250.400 M219.369 251.000 C 219.370 255.620,219.428 257.455,219.499 255.078 C 219.570 252.701,219.569 248.921,219.498 246.678 C 219.427 244.435,219.369 246.380,219.369 251.000 M113.785 247.500 C 111.497 251.487,111.086 252.290,111.877 251.234 C 112.837 249.951,115.296 245.600,115.061 245.600 C 114.959 245.600,114.385 246.455,113.785 247.500 M143.200 246.199 C 143.200 246.622,145.630 251.379,146.061 251.800 C 146.286 252.020,145.915 251.098,145.235 249.751 C 144.556 248.403,144.000 247.109,144.000 246.874 C 144.000 246.639,143.820 246.336,143.600 246.200 C 143.380 246.064,143.200 246.064,143.200 246.199 M109.578 254.500 C 108.869 255.655,107.484 257.646,106.502 258.924 C 105.519 260.203,104.810 261.344,104.926 261.459 C 105.041 261.575,105.460 261.159,105.856 260.535 C 106.252 259.911,107.228 258.500,108.025 257.400 C 109.753 255.014,111.344 252.400,111.067 252.400 C 110.958 252.400,110.288 253.345,109.578 254.500 M148.187 255.000 C 149.294 256.734,154.840 262.545,156.300 263.502 C 157.378 264.209,157.456 265.011,156.500 265.568 C 155.886 265.925,155.880 265.977,156.451 265.988 C 158.589 266.028,158.032 264.881,153.901 260.740 C 151.629 258.463,149.184 255.880,148.468 255.000 L 147.165 253.400 148.187 255.000 M103.629 263.054 C 102.656 264.291,102.557 265.421,103.394 265.742 C 103.880 265.929,103.904 265.836,103.530 265.237 C 103.160 264.644,103.243 264.263,103.963 263.252 C 105.044 261.733,104.787 261.581,103.629 263.054 M218.942 266.200 C 218.941 268.180,219.008 269.040,219.092 268.112 C 219.176 267.184,219.177 265.564,219.095 264.512 C 219.012 263.460,218.943 264.220,218.942 266.200 M245.746 267.400 C 245.747 269.600,245.814 270.449,245.895 269.287 C 245.976 268.124,245.976 266.324,245.893 265.287 C 245.811 264.249,245.745 265.200,245.746 267.400 M218.501 271.800 C 218.505 272.680,218.587 272.993,218.683 272.495 C 218.779 271.998,218.775 271.278,218.675 270.895 C 218.575 270.513,218.496 270.920,218.501 271.800 M246.109 273.200 C 246.109 274.190,246.187 274.595,246.282 274.100 C 246.378 273.605,246.378 272.795,246.282 272.300 C 246.187 271.805,246.109 272.210,246.109 273.200 M218.068 276.800 C 218.026 277.790,217.906 279.320,217.802 280.200 L 217.612 281.800 218.022 280.200 C 218.248 279.320,218.368 277.790,218.288 276.800 L 218.144 275.000 218.068 276.800 M246.528 278.000 C 246.528 279.430,246.601 280.015,246.689 279.300 C 246.778 278.585,246.778 277.415,246.689 276.700 C 246.601 275.985,246.528 276.570,246.528 278.000 M217.264 284.250 C 217.229 284.938,217.111 286.108,217.001 286.850 L 216.803 288.200 217.224 286.858 C 217.455 286.120,217.573 284.950,217.486 284.258 L 217.328 283.000 217.264 284.250 M247.309 286.000 C 247.309 286.990,247.387 287.395,247.482 286.900 C 247.578 286.405,247.578 285.595,247.482 285.100 C 247.387 284.605,247.309 285.010,247.309 286.000 M216.493 290.400 C 216.493 291.170,216.575 291.485,216.676 291.100 C 216.776 290.715,216.776 290.085,216.676 289.700 C 216.575 289.315,216.493 289.630,216.493 290.400 M248.114 291.800 C 248.117 292.900,248.195 293.303,248.287 292.695 C 248.379 292.086,248.377 291.186,248.282 290.695 C 248.187 290.203,248.111 290.700,248.114 291.800 M215.660 294.850 C 215.627 295.428,215.511 296.507,215.401 297.250 L 215.203 298.600 215.624 297.257 C 215.855 296.519,215.972 295.439,215.882 294.857 L 215.720 293.800 215.660 294.850 M248.840 297.033 C 248.862 297.675,249.033 298.650,249.220 299.200 C 249.449 299.874,249.484 299.549,249.328 298.200 C 249.069 295.950,248.779 295.259,248.840 297.033 M214.640 300.840 C 214.493 301.757,214.452 302.585,214.547 302.680 C 214.642 302.776,214.846 302.110,215.000 301.200 C 215.154 300.290,215.196 299.462,215.093 299.360 C 214.990 299.257,214.787 299.923,214.640 300.840 M213.800 305.200 C 213.646 306.110,213.604 306.938,213.707 307.040 C 213.810 307.143,214.013 306.477,214.160 305.560 C 214.307 304.643,214.348 303.815,214.253 303.720 C 214.158 303.624,213.954 304.290,213.800 305.200 M213.253 308.620 C 213.195 309.952,213.809 310.816,214.780 310.772 C 215.208 310.752,215.152 310.648,214.600 310.433 C 214.106 310.242,213.705 309.601,213.553 308.761 L 213.305 307.400 213.253 308.620 M251.246 308.877 C 251.221 309.250,250.800 309.835,250.311 310.177 C 249.822 310.520,249.608 310.800,249.835 310.800 C 250.712 310.800,251.682 309.729,251.490 308.974 C 251.333 308.356,251.283 308.336,251.246 308.877 " stroke="none" fill="#565656" fill-rule="evenodd"></path><path id="path3" d="M245.334 239.600 C 245.334 241.250,245.405 241.925,245.491 241.100 C 245.578 240.275,245.578 238.925,245.491 238.100 C 245.405 237.275,245.334 237.950,245.334 239.600 M219.309 241.200 C 219.309 242.190,219.387 242.595,219.482 242.100 C 219.578 241.605,219.578 240.795,219.482 240.300 C 219.387 239.805,219.309 240.210,219.309 241.200 M245.320 260.400 C 245.320 261.610,245.395 262.105,245.487 261.500 C 245.578 260.895,245.578 259.905,245.487 259.300 C 245.395 258.695,245.320 259.190,245.320 260.400 M219.309 260.800 C 219.309 261.790,219.387 262.195,219.482 261.700 C 219.578 261.205,219.578 260.395,219.482 259.900 C 219.387 259.405,219.309 259.810,219.309 260.800 M119.529 265.500 C 126.199 265.561,136.999 265.561,143.529 265.500 C 150.058 265.438,144.600 265.388,131.400 265.388 C 118.200 265.388,112.858 265.438,119.529 265.500 M223.900 310.300 C 228.795 310.363,236.805 310.363,241.700 310.300 C 246.595 310.236,242.590 310.184,232.800 310.184 C 223.010 310.184,219.005 310.236,223.900 310.300 " stroke="none" fill="#747474" fill-rule="evenodd"></path><path id="path4" d="M204.200 95.600 C 202.470 96.040,204.357 96.055,206.800 95.620 L 208.600 95.300 207.000 95.297 C 206.120 95.296,204.860 95.432,204.200 95.600 M197.200 96.421 C 196.299 96.624,196.797 96.659,198.600 96.519 C 200.140 96.399,201.475 96.234,201.567 96.151 C 201.852 95.892,198.671 96.089,197.200 96.421 M190.600 97.200 C 188.273 97.617,190.740 97.633,193.400 97.218 C 195.299 96.923,195.319 96.907,193.800 96.910 C 192.920 96.912,191.480 97.042,190.600 97.200 M210.487 97.800 C 210.491 98.240,210.632 99.140,210.800 99.800 C 211.074 100.878,211.106 100.898,211.113 100.000 C 211.117 99.450,210.976 98.550,210.800 98.000 C 210.549 97.216,210.481 97.173,210.487 97.800 M183.800 98.000 C 182.453 98.241,182.390 98.291,183.400 98.314 C 184.060 98.329,185.410 98.197,186.400 98.020 C 188.015 97.733,188.056 97.701,186.800 97.707 C 186.030 97.711,184.680 97.842,183.800 98.000 M178.067 98.676 C 177.498 98.903,175.853 102.386,176.167 102.700 C 176.357 102.890,177.600 100.175,177.600 99.569 C 177.600 99.386,178.275 99.123,179.100 98.985 C 181.310 98.616,181.573 98.463,180.000 98.463 C 179.230 98.463,178.360 98.559,178.067 98.676 M211.268 102.000 C 211.288 103.039,211.918 104.746,211.932 103.800 C 211.938 103.360,211.789 102.640,211.600 102.200 C 211.389 101.710,211.261 101.632,211.268 102.000 M174.240 107.040 C 173.439 108.953,172.850 110.583,172.931 110.664 C 173.011 110.744,173.737 109.250,174.544 107.344 C 175.351 105.438,175.940 103.807,175.853 103.720 C 175.767 103.633,175.041 105.127,174.240 107.040 M212.056 105.600 C 212.056 105.930,212.211 106.560,212.400 107.000 C 212.617 107.504,212.744 107.578,212.744 107.200 C 212.744 106.870,212.589 106.240,212.400 105.800 C 212.183 105.296,212.056 105.222,212.056 105.600 M213.065 109.591 C 213.196 110.357,213.544 111.707,213.839 112.591 C 214.349 114.125,214.362 114.135,214.135 112.809 C 214.004 112.043,213.656 110.693,213.361 109.809 C 212.851 108.275,212.838 108.265,213.065 109.591 M214.456 114.800 C 214.456 115.130,214.611 115.760,214.800 116.200 C 215.017 116.704,215.144 116.778,215.144 116.400 C 215.144 116.070,214.989 115.440,214.800 115.000 C 214.583 114.496,214.456 114.422,214.456 114.800 M215.256 117.600 C 215.256 117.930,215.411 118.560,215.600 119.000 C 215.817 119.504,215.944 119.578,215.944 119.200 C 215.944 118.870,215.789 118.240,215.600 117.800 C 215.383 117.296,215.256 117.222,215.256 117.600 M216.034 120.600 C 216.022 121.040,216.187 121.670,216.400 122.000 C 216.914 122.795,216.914 121.796,216.400 120.600 L 216.056 119.800 216.034 120.600 M218.434 128.600 C 218.422 129.040,218.587 129.670,218.800 130.000 C 219.314 130.795,219.314 129.796,218.800 128.600 L 218.456 127.800 218.434 128.600 M165.100 129.484 C 164.989 129.878,164.503 131.190,164.021 132.400 C 163.538 133.610,163.308 134.420,163.509 134.200 C 164.058 133.600,165.735 129.202,165.503 128.970 C 165.392 128.859,165.211 129.090,165.100 129.484 M170.900 129.087 C 170.121 129.367,170.313 129.948,171.115 129.738 C 171.802 129.558,175.925 135.328,179.378 141.300 C 179.982 142.345,180.562 143.200,180.667 143.200 C 181.194 143.200,172.918 130.104,171.869 129.277 C 171.611 129.074,171.175 128.988,170.900 129.087 M219.234 130.990 C 219.181 131.596,222.953 143.344,223.074 142.950 C 223.133 142.757,222.301 139.900,221.225 136.600 C 220.148 133.300,219.252 130.775,219.234 130.990 M167.877 136.077 C 167.073 138.096,166.475 139.808,166.548 139.881 C 166.621 139.954,167.357 138.381,168.185 136.385 C 169.012 134.389,169.610 132.677,169.514 132.580 C 169.418 132.484,168.681 134.058,167.877 136.077 M161.492 138.492 C 160.670 140.493,160.062 142.195,160.140 142.274 C 160.219 142.352,160.966 140.789,161.800 138.800 C 162.634 136.811,163.243 135.109,163.152 135.019 C 163.062 134.928,162.315 136.491,161.492 138.492 M165.467 142.067 C 165.105 142.988,164.874 143.807,164.954 143.888 C 165.034 143.968,165.400 143.283,165.767 142.367 C 166.133 141.450,166.364 140.631,166.279 140.546 C 166.194 140.461,165.829 141.145,165.467 142.067 M183.086 148.183 C 184.340 150.704,185.431 152.703,185.508 152.625 C 185.685 152.448,181.264 143.600,180.999 143.600 C 180.892 143.600,181.831 145.662,183.086 148.183 M157.467 148.467 C 157.105 149.388,156.874 150.207,156.954 150.288 C 157.034 150.368,157.400 149.683,157.767 148.767 C 158.133 147.850,158.364 147.031,158.279 146.946 C 158.194 146.861,157.829 147.545,157.467 148.467 M161.853 151.053 C 161.255 152.508,160.832 153.765,160.913 153.846 C 160.994 153.928,161.550 152.803,162.147 151.347 C 162.745 149.892,163.168 148.635,163.087 148.554 C 163.006 148.472,162.450 149.597,161.853 151.053 M225.612 151.200 C 225.612 151.530,225.787 152.070,226.000 152.400 C 226.345 152.933,226.388 152.933,226.388 152.400 C 226.388 152.070,226.213 151.530,226.000 151.200 C 225.655 150.667,225.612 150.667,225.612 151.200 M186.278 154.595 C 186.644 155.362,187.014 155.919,187.101 155.832 C 187.284 155.649,186.070 153.200,185.796 153.200 C 185.695 153.200,185.912 153.828,186.278 154.595 M226.499 153.700 C 226.600 153.975,227.088 155.426,227.583 156.926 C 228.077 158.425,228.566 159.567,228.668 159.465 C 228.883 159.251,226.794 153.200,226.505 153.200 C 226.400 153.200,226.397 153.425,226.499 153.700 M187.200 156.463 C 187.200 156.834,190.353 163.423,190.377 163.104 C 190.408 162.703,187.947 157.098,187.531 156.620 C 187.349 156.411,187.200 156.341,187.200 156.463 M158.274 159.931 C 157.368 162.197,157.448 162.569,158.422 160.617 C 158.856 159.746,159.152 158.857,159.080 158.640 C 159.008 158.423,158.645 159.004,158.274 159.931 M153.095 159.283 C 152.983 159.567,151.774 162.558,150.408 165.929 C 149.042 169.300,147.992 172.126,148.075 172.208 C 148.158 172.291,149.434 169.367,150.911 165.711 C 152.388 162.054,153.529 158.996,153.447 158.914 C 153.366 158.832,153.207 158.998,153.095 159.283 M156.791 163.687 C 156.507 164.409,155.846 165.967,155.321 167.149 C 154.796 168.331,154.427 169.480,154.501 169.702 C 154.575 169.925,155.303 168.433,156.119 166.388 C 156.935 164.342,157.536 162.602,157.455 162.521 C 157.374 162.441,157.075 162.965,156.791 163.687 M230.602 165.200 C 231.351 167.691,233.307 172.827,233.451 172.683 C 233.627 172.506,230.879 164.736,230.524 164.407 C 230.401 164.293,230.436 164.650,230.602 165.200 M192.196 168.300 C 192.351 168.685,192.847 169.949,193.297 171.108 C 193.748 172.268,194.189 173.144,194.276 173.057 C 194.474 172.859,192.391 167.600,192.115 167.600 C 192.005 167.600,192.041 167.915,192.196 168.300 M152.658 174.104 C 151.728 176.540,151.880 177.004,152.836 174.647 C 153.272 173.573,153.558 172.624,153.472 172.538 C 153.386 172.452,153.020 173.157,152.658 174.104 M147.000 174.261 C 146.664 175.065,146.482 175.815,146.595 175.928 C 146.708 176.041,146.800 176.035,146.800 175.916 C 146.800 175.796,147.072 175.046,147.405 174.249 C 147.738 173.452,147.921 172.800,147.811 172.800 C 147.701 172.800,147.336 173.458,147.000 174.261 M233.600 173.413 C 233.600 173.958,236.481 181.253,236.635 181.098 C 236.775 180.958,234.068 173.540,233.765 173.233 C 233.674 173.142,233.600 173.223,233.600 173.413 M195.426 176.500 C 195.951 178.184,196.380 179.200,196.566 179.200 C 196.668 179.200,196.475 178.390,196.138 177.400 C 195.524 175.597,194.899 174.807,195.426 176.500 M144.824 179.697 C 143.015 184.279,143.020 184.263,143.476 183.800 C 143.995 183.274,146.527 176.793,146.302 176.568 C 146.206 176.472,145.541 177.880,144.824 179.697 M150.548 179.500 C 150.424 179.885,150.052 180.920,149.723 181.800 C 148.540 184.962,147.945 186.879,148.099 187.033 C 148.243 187.176,150.022 182.496,150.810 179.900 C 151.170 178.715,150.924 178.339,150.548 179.500 M237.050 182.696 L 237.298 183.992 217.749 184.100 L 198.200 184.208 217.900 184.304 L 237.600 184.400 237.594 183.500 C 237.591 183.005,237.411 182.330,237.194 182.000 C 236.915 181.573,236.873 181.774,237.050 182.696 M178.428 191.900 C 178.444 192.285,178.626 192.960,178.834 193.400 C 179.137 194.041,179.167 193.969,178.983 193.038 C 178.837 192.298,178.944 191.755,179.277 191.544 C 179.669 191.295,179.625 191.211,179.100 191.206 C 178.687 191.203,178.412 191.487,178.428 191.900 M285.742 193.102 C 285.693 194.708,285.732 194.815,285.995 193.800 C 286.419 192.159,286.458 191.200,286.100 191.202 C 285.935 191.203,285.774 192.058,285.742 193.102 M138.712 194.715 C 138.113 196.168,137.685 197.418,137.760 197.493 C 137.835 197.569,138.398 196.451,139.011 195.011 C 139.623 193.570,140.051 192.319,139.962 192.232 C 139.873 192.145,139.310 193.262,138.712 194.715 M144.640 197.040 C 144.253 198.267,144.009 199.342,144.097 199.430 C 144.185 199.518,144.573 198.587,144.960 197.360 C 145.347 196.133,145.591 195.058,145.503 194.970 C 145.415 194.882,145.027 195.813,144.640 197.040 M179.268 195.800 C 179.274 196.240,179.424 197.050,179.600 197.600 L 179.920 198.600 179.932 197.600 C 179.938 197.050,179.789 196.240,179.600 195.800 L 179.256 195.000 179.268 195.800 M209.400 195.610 C 208.866 195.847,209.198 195.886,210.400 195.727 C 211.390 195.596,212.275 195.424,212.367 195.344 C 212.714 195.043,210.164 195.272,209.400 195.610 M214.257 195.635 C 214.508 195.946,214.811 196.560,214.929 197.000 C 215.064 197.503,215.117 197.365,215.072 196.631 C 215.032 195.988,214.730 195.374,214.400 195.266 C 213.928 195.112,213.898 195.191,214.257 195.635 M252.433 195.344 C 252.525 195.424,253.410 195.596,254.400 195.727 C 255.602 195.886,255.934 195.847,255.400 195.610 C 254.636 195.272,252.086 195.043,252.433 195.344 M285.022 196.622 C 284.872 197.425,284.828 198.162,284.926 198.260 C 285.024 198.357,285.227 197.781,285.378 196.978 C 285.528 196.175,285.572 195.438,285.474 195.340 C 285.376 195.243,285.173 195.819,285.022 196.622 M205.305 197.107 C 202.822 198.403,198.220 201.953,198.570 202.303 C 198.704 202.438,199.486 201.912,200.307 201.135 C 202.585 198.979,204.401 197.742,206.600 196.853 C 207.700 196.408,208.330 196.037,208.000 196.029 C 207.670 196.020,206.457 196.505,205.305 197.107 M258.164 196.840 C 259.245 197.279,260.640 198.001,261.264 198.446 C 261.889 198.891,262.400 199.087,262.400 198.882 C 262.400 198.444,257.554 195.990,256.751 196.022 C 256.448 196.034,257.084 196.402,258.164 196.840 M136.667 199.667 C 136.305 200.588,136.074 201.407,136.154 201.488 C 136.234 201.568,136.600 200.883,136.967 199.967 C 137.333 199.050,137.564 198.231,137.479 198.146 C 137.394 198.061,137.029 198.745,136.667 199.667 M215.240 199.033 C 215.262 199.675,215.433 200.650,215.620 201.200 C 215.849 201.874,215.884 201.549,215.728 200.200 C 215.469 197.950,215.179 197.259,215.240 199.033 M249.022 199.422 C 248.872 200.225,248.838 200.972,248.948 201.082 C 249.058 201.192,249.272 200.625,249.422 199.822 C 249.573 199.019,249.606 198.273,249.496 198.163 C 249.386 198.053,249.173 198.619,249.022 199.422 M180.080 199.800 C 180.080 200.240,180.224 201.050,180.400 201.600 C 180.654 202.392,180.720 202.433,180.720 201.800 C 180.720 201.360,180.576 200.550,180.400 200.000 C 180.146 199.208,180.080 199.167,180.080 199.800 M264.254 200.712 C 265.164 201.530,266.578 202.920,267.395 203.800 C 268.551 205.045,268.702 205.131,268.075 204.188 C 267.171 202.826,263.406 199.194,262.917 199.212 C 262.743 199.219,263.345 199.894,264.254 200.712 M284.449 199.800 C 284.416 200.240,284.296 201.050,284.183 201.600 L 283.977 202.600 284.406 201.619 C 284.642 201.079,284.761 200.269,284.672 199.819 C 284.513 199.021,284.507 199.021,284.449 199.800 M143.402 201.585 C 142.978 204.096,142.395 204.000,158.056 204.000 L 172.466 204.000 172.333 206.801 C 172.260 208.341,172.343 209.601,172.518 209.601 C 172.692 209.600,172.782 208.295,172.718 206.700 L 172.600 203.800 158.055 203.695 L 143.511 203.590 143.780 201.795 C 144.112 199.581,143.773 199.393,143.402 201.585 M135.600 202.084 C 135.600 202.204,135.328 202.954,134.995 203.751 C 134.662 204.548,134.479 205.200,134.589 205.200 C 134.906 205.200,136.033 202.300,135.805 202.072 C 135.692 201.959,135.600 201.965,135.600 202.084 M248.255 203.855 C 248.113 204.886,248.074 205.808,248.169 205.902 C 248.263 205.996,248.465 205.239,248.618 204.218 C 248.771 203.198,248.810 202.276,248.704 202.171 C 248.598 202.065,248.396 202.823,248.255 203.855 M197.779 203.106 C 197.278 203.456,195.033 206.400,195.268 206.400 C 195.357 206.400,196.108 205.590,196.935 204.600 C 198.433 202.808,198.581 202.547,197.779 203.106 M216.095 203.600 C 216.095 204.150,216.232 205.140,216.400 205.800 C 216.672 206.870,216.705 206.892,216.705 206.000 C 216.705 205.450,216.568 204.460,216.400 203.800 C 216.128 202.730,216.095 202.708,216.095 203.600 M180.870 203.800 C 180.857 204.240,180.995 205.320,181.177 206.200 C 181.455 207.545,181.508 207.609,181.507 206.600 C 181.505 205.199,180.908 202.570,180.870 203.800 M283.469 204.756 C 283.321 205.495,283.220 206.482,283.244 206.950 C 283.268 207.418,283.447 206.990,283.642 206.000 C 283.837 205.010,283.938 204.023,283.867 203.806 C 283.796 203.590,283.617 204.017,283.469 204.756 M132.263 210.063 C 131.239 212.522,130.456 214.589,130.523 214.656 C 130.589 214.723,131.328 213.207,132.163 211.289 C 132.999 209.370,133.874 207.395,134.109 206.901 C 134.343 206.406,134.442 205.909,134.329 205.796 C 134.216 205.683,133.286 207.603,132.263 210.063 M269.895 207.381 C 270.487 208.361,271.036 209.098,271.115 209.019 C 271.283 208.851,269.277 205.600,269.005 205.600 C 268.903 205.600,269.304 206.401,269.895 207.381 M194.298 207.706 C 193.336 209.175,190.751 214.437,190.136 216.181 C 189.378 218.331,190.092 217.489,190.969 215.200 C 191.348 214.210,192.444 211.915,193.405 210.100 C 195.120 206.861,195.474 205.912,194.298 207.706 M247.446 209.147 C 247.289 210.327,247.246 211.379,247.350 211.483 C 247.617 211.750,248.122 208.164,247.907 207.525 C 247.811 207.236,247.603 207.966,247.446 209.147 M181.673 209.400 C 181.658 210.060,181.795 211.320,181.977 212.200 C 182.413 214.306,182.450 212.414,182.020 210.000 C 181.780 208.650,181.693 208.500,181.673 209.400 M216.893 209.400 C 216.894 210.060,217.032 211.140,217.200 211.800 C 217.623 213.463,217.642 211.826,217.223 209.800 C 216.945 208.455,216.892 208.391,216.893 209.400 M282.646 210.646 C 282.500 211.893,282.459 212.993,282.557 213.090 C 282.654 213.188,282.861 212.254,283.015 211.015 C 283.170 209.777,283.210 208.677,283.105 208.571 C 282.999 208.466,282.793 209.399,282.646 210.646 M272.696 212.799 C 273.488 214.559,274.208 215.925,274.297 215.836 C 274.491 215.642,271.738 209.600,271.455 209.600 C 271.346 209.600,271.905 211.040,272.696 212.799 M141.022 212.622 C 140.872 213.425,140.828 214.162,140.926 214.260 C 141.024 214.357,141.227 213.781,141.378 212.978 C 141.528 212.175,141.572 211.438,141.474 211.340 C 141.376 211.243,141.173 211.819,141.022 212.622 M246.864 214.250 C 246.829 214.938,246.711 216.107,246.601 216.850 L 246.403 218.200 246.824 216.858 C 247.055 216.120,247.173 214.950,247.086 214.258 L 246.928 213.000 246.864 214.250 M217.680 215.400 C 217.668 216.060,217.803 217.410,217.980 218.400 C 218.216 219.728,218.305 219.885,218.320 219.000 C 218.332 218.340,218.197 216.990,218.020 216.000 C 217.784 214.672,217.695 214.515,217.680 215.400 M281.813 217.413 C 281.657 218.871,281.614 220.147,281.716 220.250 C 281.819 220.352,282.031 219.244,282.187 217.787 C 282.343 216.329,282.386 215.053,282.284 214.950 C 282.181 214.848,281.969 215.956,281.813 217.413 M129.423 216.606 C 128.560 218.672,128.674 218.906,129.647 217.062 C 130.093 216.216,130.365 215.432,130.252 215.319 C 130.139 215.206,129.766 215.785,129.423 216.606 M182.677 218.200 C 182.798 219.960,182.965 221.475,183.049 221.567 C 183.319 221.864,183.150 218.650,182.799 216.800 C 182.542 215.447,182.512 215.794,182.677 218.200 M140.185 217.785 C 140.030 219.023,139.990 220.123,140.095 220.229 C 140.201 220.334,140.407 219.401,140.554 218.154 C 140.700 216.907,140.741 215.807,140.643 215.710 C 140.546 215.612,140.339 216.546,140.185 217.785 M127.872 220.219 C 126.932 222.189,127.064 222.524,128.047 220.662 C 128.493 219.816,128.787 219.054,128.701 218.967 C 128.614 218.881,128.241 219.444,127.872 220.219 M187.829 222.429 C 187.484 223.588,187.275 224.608,187.363 224.696 C 187.451 224.784,187.802 223.905,188.143 222.743 C 188.484 221.580,188.693 220.560,188.608 220.475 C 188.524 220.390,188.173 221.269,187.829 222.429 M245.794 224.138 C 245.638 226.005,245.591 227.773,245.690 228.066 C 245.788 228.360,245.996 226.913,246.152 224.851 C 246.308 222.790,246.355 221.022,246.256 220.923 C 246.157 220.824,245.949 222.271,245.794 224.138 M218.508 223.400 C 218.500 224.500,218.625 226.570,218.786 228.000 C 219.062 230.455,219.079 230.489,219.092 228.600 C 219.100 227.500,218.975 225.430,218.814 224.000 C 218.538 221.545,218.521 221.511,218.508 223.400 M139.761 228.000 C 139.761 231.410,139.822 232.805,139.897 231.100 C 139.972 229.395,139.972 226.605,139.897 224.900 C 139.822 223.195,139.761 224.590,139.761 228.000 M125.841 224.623 C 124.436 227.691,124.556 227.947,126.046 225.060 C 126.710 223.773,127.170 222.636,127.068 222.534 C 126.966 222.432,126.414 223.372,125.841 224.623 M281.020 226.420 C 280.863 228.426,280.819 230.153,280.923 230.256 C 281.027 230.360,281.241 228.805,281.400 226.800 C 281.559 224.795,281.602 223.069,281.497 222.964 C 281.392 222.858,281.177 224.414,281.020 226.420 M183.311 226.000 C 183.302 227.430,183.425 229.770,183.586 231.200 L 183.878 233.800 183.887 231.600 C 183.892 230.390,183.768 228.050,183.612 226.400 L 183.329 223.400 183.311 226.000 M277.636 226.400 C 277.607 227.088,279.109 232.008,279.162 231.400 C 279.181 231.180,278.851 229.830,278.429 228.400 C 278.007 226.970,277.650 226.070,277.636 226.400 M185.829 229.029 C 185.681 229.615,185.651 230.184,185.761 230.294 C 185.871 230.404,186.081 230.015,186.229 229.429 C 186.376 228.842,186.406 228.273,186.296 228.163 C 186.186 228.053,185.976 228.442,185.829 229.029 M245.061 235.263 C 244.744 241.160,244.798 259.875,245.147 265.400 C 245.286 267.600,245.400 260.625,245.400 249.900 C 245.400 239.175,245.383 230.400,245.361 230.400 C 245.340 230.400,245.205 232.588,245.061 235.263 M122.278 232.205 C 121.912 232.972,121.695 233.600,121.796 233.600 C 122.070 233.600,123.284 231.151,123.101 230.968 C 123.014 230.881,122.644 231.438,122.278 232.205 M185.029 232.229 C 184.881 232.815,184.838 233.372,184.932 233.466 C 185.027 233.560,185.224 233.158,185.371 232.571 C 185.519 231.985,185.562 231.428,185.468 231.334 C 185.373 231.240,185.176 231.642,185.029 232.229 M279.242 232.754 C 279.174 233.647,280.096 236.400,280.463 236.400 C 280.648 236.400,280.786 235.905,280.768 235.300 C 280.750 234.652,280.641 234.445,280.503 234.795 C 280.353 235.178,280.093 234.820,279.777 233.795 C 279.506 232.918,279.265 232.449,279.242 232.754 M219.400 251.000 C 219.400 260.900,219.515 267.290,219.655 265.200 C 219.987 260.257,219.989 241.228,219.658 236.600 C 219.516 234.620,219.400 241.100,219.400 251.000 M119.909 236.909 C 119.095 238.478,118.501 239.834,118.589 239.922 C 118.677 240.010,119.402 238.785,120.200 237.200 C 120.998 235.615,121.592 234.259,121.520 234.187 C 121.448 234.115,120.723 235.340,119.909 236.909 M184.000 235.200 C 184.000 235.640,184.180 236.000,184.400 236.000 C 184.620 236.000,184.800 235.640,184.800 235.200 C 184.800 234.760,184.620 234.400,184.400 234.400 C 184.180 234.400,184.000 234.760,184.000 235.200 M140.080 236.000 C 140.080 236.550,140.224 237.450,140.400 238.000 L 140.720 239.000 140.720 238.000 C 140.720 237.450,140.576 236.550,140.400 236.000 L 140.080 235.000 140.080 236.000 M140.834 240.200 C 140.822 240.640,140.987 241.270,141.200 241.600 C 141.714 242.395,141.714 241.396,141.200 240.200 L 140.856 239.400 140.834 240.200 M116.620 243.304 C 115.783 244.897,115.278 246.020,115.496 245.800 C 116.065 245.226,118.458 240.724,118.285 240.552 C 118.206 240.473,117.457 241.711,116.620 243.304 M142.434 245.400 C 142.434 245.620,142.778 246.430,143.200 247.200 C 143.622 247.970,143.966 248.420,143.966 248.200 C 143.966 247.980,143.622 247.170,143.200 246.400 C 142.778 245.630,142.434 245.180,142.434 245.400 M114.200 247.600 C 113.859 248.260,113.669 248.800,113.779 248.800 C 113.889 248.800,114.259 248.260,114.600 247.600 C 114.941 246.940,115.131 246.400,115.021 246.400 C 114.911 246.400,114.541 246.940,114.200 247.600 M112.770 250.066 C 112.498 250.580,112.013 251.405,111.692 251.900 C 111.371 252.395,111.195 252.800,111.301 252.800 C 111.636 252.800,113.669 249.536,113.462 249.329 C 113.354 249.220,113.042 249.552,112.770 250.066 M144.800 250.565 C 144.800 251.565,149.071 257.128,152.474 260.559 C 154.633 262.736,156.400 264.581,156.400 264.659 C 156.400 264.736,144.610 264.800,130.200 264.800 C 110.584 264.800,104.000 264.683,104.000 264.336 C 104.000 264.080,105.099 262.359,106.442 260.511 C 107.785 258.662,108.814 257.080,108.728 256.995 C 108.516 256.783,103.200 264.277,103.200 264.789 C 103.200 265.015,103.425 265.205,103.700 265.210 C 110.228 265.345,156.559 265.149,156.823 264.986 C 157.028 264.859,155.345 262.919,153.084 260.674 C 150.822 258.429,148.033 255.162,146.886 253.414 C 145.739 251.667,144.800 250.384,144.800 250.565 M109.785 254.900 C 109.168 255.835,108.920 256.389,109.232 256.131 C 109.833 255.634,111.364 253.200,111.076 253.200 C 110.983 253.200,110.402 253.965,109.785 254.900 M218.600 274.400 C 218.441 276.405,218.402 278.135,218.512 278.245 C 218.622 278.355,218.841 276.805,219.000 274.800 C 219.159 272.795,219.198 271.065,219.088 270.955 C 218.978 270.845,218.759 272.395,218.600 274.400 M245.880 275.400 C 245.999 277.380,246.165 279.075,246.248 279.167 C 246.512 279.456,246.344 275.885,245.996 273.800 C 245.751 272.327,245.720 272.748,245.880 275.400 M217.790 282.138 C 217.639 283.352,217.595 284.582,217.693 284.872 C 217.790 285.162,218.001 284.256,218.160 282.858 C 218.319 281.460,218.363 280.230,218.258 280.124 C 218.152 280.019,217.942 280.925,217.790 282.138 M246.476 282.400 C 246.467 282.950,246.603 284.210,246.780 285.200 C 247.020 286.550,247.107 286.700,247.127 285.800 C 247.142 285.140,247.005 283.880,246.823 283.000 C 246.616 281.998,246.486 281.774,246.476 282.400 M217.053 288.036 C 216.914 288.731,216.821 289.772,216.847 290.350 C 216.872 290.928,217.055 290.427,217.252 289.239 C 217.637 286.921,217.473 285.934,217.053 288.036 M247.269 288.800 C 247.256 289.350,247.395 290.520,247.577 291.400 C 247.789 292.426,247.916 292.641,247.931 292.000 C 247.944 291.450,247.805 290.280,247.623 289.400 C 247.411 288.374,247.284 288.159,247.269 288.800 M216.218 294.218 C 216.065 295.239,216.022 296.155,216.122 296.255 C 216.222 296.355,216.429 295.602,216.582 294.582 C 216.735 293.561,216.778 292.645,216.678 292.545 C 216.578 292.445,216.371 293.198,216.218 294.218 M248.087 294.600 C 248.091 295.040,248.232 295.940,248.400 296.600 C 248.674 297.678,248.706 297.698,248.713 296.800 C 248.717 296.250,248.576 295.350,248.400 294.800 C 248.149 294.016,248.081 293.973,248.087 294.600 M215.400 298.800 C 215.246 299.710,215.204 300.538,215.307 300.640 C 215.410 300.743,215.613 300.077,215.760 299.160 C 215.907 298.243,215.948 297.415,215.853 297.320 C 215.758 297.224,215.554 297.890,215.400 298.800 M248.887 299.400 C 248.891 299.840,249.032 300.740,249.200 301.400 C 249.474 302.478,249.506 302.498,249.513 301.600 C 249.517 301.050,249.376 300.150,249.200 299.600 C 248.949 298.816,248.881 298.773,248.887 299.400 M214.640 303.240 C 214.493 304.157,214.452 304.985,214.547 305.080 C 214.642 305.176,214.846 304.510,215.000 303.600 C 215.154 302.690,215.196 301.862,215.093 301.760 C 214.990 301.657,214.787 302.323,214.640 303.240 M249.668 303.800 C 249.662 304.240,249.811 304.960,250.000 305.400 C 250.438 306.419,250.438 305.368,250.000 304.000 C 249.743 303.196,249.677 303.157,249.668 303.800 M213.850 306.850 C 213.409 309.053,213.544 309.999,214.300 310.008 C 226.285 310.143,250.670 309.890,250.933 309.627 C 251.142 309.418,251.110 308.801,250.855 308.135 L 250.420 307.000 250.510 308.200 L 250.600 309.400 232.262 309.504 L 213.924 309.608 214.199 307.604 C 214.502 305.404,214.249 304.857,213.850 306.850 " stroke="none" fill="#7c7c7c" fill-rule="evenodd"></path></g></svg>